#!OML:ASF X:\für Bonn\!DataBase\2005_08_10_Bjorn_Final\c3d\bjorn.ASF
:FULLY-SPECIFIED
:DEGREES
92
root 0.473743 8.64908 3.18485 -186.958 -4.1193 179.061
lowerback 30.7056 1.91631 3.97482
upperback 15.0969 -1.10108 -0.437805
thorax 0.351226 -2.17091 -2.45014
lowerneck -21.9028 -6.19629 -0.442392
upperneck -4.12703 -9.53633 5.7506
head 2.74623 -5.04476 1.08928
rclavicle 5.76476e-015 -1.14301e-015
rhumerus 77.5094 -3.94733 -62.8434
rradius 11.568
rwrist 35.2133
rhand -16.8239 13.3715
rfingers 7.12502
rthumb 9.40528 -16.3986
lclavicle 5.76476e-015 -1.14301e-015
lhumerus 80.507 -4.04079 42.5289
lradius 15.7118
lwrist -32.4815
lhand -15.8218 -6.27543
lfingers 7.12502
lthumb 10.372 23.4488
rfemur -24.507 -83.0571 -53.6872
rtibia 149.246
rfoot -63.7307 40.6386
rtoes -41.2845
lfemur -52.4736 74.8615 15.6549
ltibia 152.199
lfoot -50.6113 -28.338
ltoes -40.6267
93
root 0.465712 8.7824 3.1958 -186.379 -4.07335 179.105
lowerback 30.2325 1.90331 3.9405
upperback 14.9918 -1.04724 -0.447279
thorax 0.435401 -2.10672 -2.46174
lowerneck -22.0314 -6.09741 -0.310871
upperneck -4.06157 -9.4342 5.52257
head 2.76774 -5.00113 0.995992
rclavicle -4.37326e-015 5.46658e-016
rhumerus 77.4344 -3.91839 -62.8073
rradius 11.4223
rwrist 35.3151
rhand -16.2799 13.329
rfingers 7.12502
rthumb 9.93014 -16.4167
lclavicle -4.37326e-015 5.46658e-016
lhumerus 80.4714 -4.19752 42.2557
lradius 15.6386
lwrist -32.1843
lhand -15.2119 -6.64529
lfingers 7.12502
lthumb 10.9604 23.0486
rfemur -52.4909 -80.4251 -24.2499
rtibia 148.299
rfoot -60.5772 39.7534
rtoes -41.2262
lfemur -62.2135 70.1819 4.75714
ltibia 151.277
lfoot -48.2056 -27.636
ltoes -40.5956
94
root 0.456353 8.92659 3.20667 -185.835 -3.97772 179.144
lowerback 29.7981 1.90838 3.89167
upperback 14.8845 -0.978118 -0.442341
thorax 0.502794 -2.03952 -2.45204
lowerneck -22.1077 -6.02044 -0.259451
upperneck -4.03132 -9.34172 5.33696
head 2.77519 -4.962 0.931966
rclavicle 2.96189e-014 -2.08724e-014
rhumerus 77.3917 -3.88244 -62.8283
rradius 11.2082
rwrist 35.6943
rhand -15.981 13.3337
rfingers 7.12502
rthumb 10.2184 -16.3981
lclavicle 2.96189e-014 -2.08724e-014
lhumerus 80.4098 -4.32482 42.0591
lradius 15.588
lwrist -31.8262
lhand -15.0774 -6.89198
lfingers 7.12502
lthumb 11.0901 22.795
rfemur -66.3568 -76.0228 -8.97205
rtibia 147.264
rfoot -57.2286 38.8194
rtoes -40.9595
lfemur -67.5943 65.1277 -1.77093
ltibia 150.268
lfoot -45.8061 -26.9392
ltoes -40.2849
95
root 0.447003 9.08 3.21802 -185.301 -3.92585 179.165
lowerback 29.4107 1.88381 3.83958
upperback 14.735 -0.932703 -0.459355
thorax 0.499656 -1.9801 -2.45477
lowerneck -22.0876 -5.92717 -0.192025
upperneck -4.02319 -9.22571 5.16026
head 2.75708 -4.91117 0.874233
rclavicle -8.99501e-015 -4.32357e-015
rhumerus 77.2112 -3.77691 -62.7322
rradius 11.0327
rwrist 35.9065
rhand -16.3785 13.2535
rfingers 7.12502
rthumb 9.83495 -16.4968
lclavicle -8.99501e-015 -4.32357e-015
lhumerus 80.3659 -4.49084 41.6227
lradius 15.4625
lwrist -31.4602
lhand -15.4957 -6.77513
lfingers 7.12502
lthumb 10.6866 22.9331
rfemur -72.8736 -70.9318 -1.11118
rtibia 146.154
rfoot -53.9836 37.5649
rtoes -40.785
lfemur -70.7548 59.8116 -6.06882
ltibia 149.179
lfoot -43.4583 -26.1498
ltoes -39.833
96
root 0.437633 9.24124 3.22854 -184.785 -3.85792 179.166
lowerback 29.0558 1.87233 3.75702
upperback 14.5571 -0.869137 -0.466733
thorax 0.451227 -1.91263 -2.43246
lowerneck -22.0018 -5.8538 -0.175042
upperneck -4.00665 -9.11777 5.02471
head 2.73609 -4.85988 0.839948
rclavicle 9.79014e-015 -1.20265e-014
rhumerus 76.9906 -3.64931 -62.6397
rradius 10.8397
rwrist 36.0738
rhand -16.7936 13.1981
rfingers 7.12502
rthumb 9.43451 -16.5707
lclavicle 9.79014e-015 -1.20265e-014
lhumerus 80.3328 -4.66865 41.1912
lradius 15.2948
lwrist -31.2899
lhand -15.8285 -6.65405
lfingers 7.12502
lthumb 10.3656 23.0705
rfemur -76.0512 -65.5817 3.33735
rtibia 144.979
rfoot -50.9674 36.1034
rtoes -40.6069
lfemur -72.603 54.3947 -9.05002
ltibia 148.024
lfoot -41.2049 -25.2145
ltoes -39.2903
97
root 0.427864 9.41272 3.23812 -184.321 -3.8037 179.188
lowerback 28.7274 1.84315 3.71335
upperback 14.3889 -0.826095 -0.488436
thorax 0.403416 -1.85552 -2.44223
lowerneck -21.8939 -5.76819 -0.154407
upperneck -4.00296 -8.99619 4.93465
head 2.70911 -4.80078 0.822217
rclavicle 2.55438e-014 -1.02871e-014
rhumerus 76.8164 -3.47875 -62.2947
rradius 10.6124
rwrist 35.8445
rhand -17.1155 13.1122
rfingers 7.12502
rthumb 9.12389 -16.6704
lclavicle 2.55438e-014 -1.02871e-014
lhumerus 80.3082 -4.83662 40.7119
lradius 15.101
lwrist -31.2884
lhand -16.2096 -6.51101
lfingers 7.12502
lthumb 9.99799 23.2315
rfemur -77.5343 -60.1043 6.09416
rtibia 143.71
rfoot -48.1771 34.4779
rtoes -40.3783
lfemur -73.5528 48.8842 -11.1104
ltibia 146.784
lfoot -39.1114 -24.1238
ltoes -38.6549
98
root 0.418518 9.59055 3.24727 -183.885 -3.76947 179.209
lowerback 28.3713 1.81994 3.68808
upperback 14.2553 -0.783759 -0.507626
thorax 0.409958 -1.80098 -2.46122
lowerneck -21.6732 -5.70124 -0.239209
upperneck -4.13273 -8.88231 5.00689
head 2.62987 -4.74667 0.881349
rclavicle -9.19379e-015 6.11263e-015
rhumerus 76.7027 -3.37762 -62.0481
rradius 10.4178
rwrist 35.593
rhand -17.2859 13.0047
rfingers 7.12502
rthumb 8.95949 -16.7851
lclavicle -9.19379e-015 6.11263e-015
lhumerus 80.2733 -4.99464 40.4164
lradius 14.9512
lwrist -31.5442
lhand -16.6036 -6.38373
lfingers 7.12502
lthumb 9.61781 23.3767
rfemur -78.1001 -54.8986 7.90139
rtibia 142.388
rfoot -45.8309 32.6755
rtoes -40.1832
lfemur -73.9713 43.45 -12.6206
ltibia 145.477
lfoot -37.2203 -22.8702
ltoes -37.9838
99
root 0.408571 9.77416 3.25485 -183.475 -3.71091 179.209
lowerback 27.9982 1.8133 3.64354
upperback 14.1471 -0.736171 -0.54451
thorax 0.454245 -1.7471 -2.49087
lowerneck -21.525 -5.61395 -0.269028
upperneck -4.23445 -8.75874 5.06848
head 2.56983 -4.68796 0.925168
rclavicle 3.03147e-015 8.24956e-015
rhumerus 76.6468 -3.32032 -61.8842
rradius 10.2845
rwrist 35.235
rhand -17.221 12.978
rfingers 7.12502
rthumb 9.02207 -16.8091
lclavicle 3.03147e-015 8.24956e-015
lhumerus 80.2766 -5.13823 40.0929
lradius 14.7791
lwrist -31.8482
lhand -16.9526 -6.22278
lfingers 7.12502
lthumb 9.28109 23.5529
rfemur -78.1439 -50.0977 9.12086
rtibia 141.015
rfoot -43.9557 30.7969
rtoes -40.1495
lfemur -73.9762 38.5242 -13.739
ltibia 144.129
lfoot -35.6651 -21.559
ltoes -37.3694
100
root 0.39867 9.96245 3.26084 -183.067 -3.68097 179.23
lowerback 27.6094 1.78875 3.61544
upperback 14.0223 -0.699945 -0.559725
thorax 0.487778 -1.69662 -2.50249
lowerneck -21.4692 -5.53711 -0.27227
upperneck -4.22268 -8.6478 5.00152
head 2.55794 -4.63308 0.915754
rclavicle 1.25234e-014 1.00386e-014
rhumerus 76.5836 -3.22378 -61.5992
rradius 10.2372
rwrist 34.6236
rhand -17.0145 12.8672
rfingers 7.12502
rthumb 9.22136 -16.9111
lclavicle 1.25234e-014 1.00386e-014
lhumerus 80.279 -5.27208 39.7497
lradius 14.584
lwrist -32.1811
lhand -17.3039 -6.05801
lfingers 7.12502
lthumb 8.94207 23.7325
rfemur -77.9073 -45.7873 10.0169
rtibia 139.606
rfoot -42.3292 29.1651
rtoes -39.8952
lfemur -73.7826 34.1292 -14.5736
ltibia 142.732
lfoot -34.3056 -20.421
ltoes -36.5689
